<svg width="73" height="146" viewBox="0 0 73 146" fill="none" xmlns="http://www.w3.org/2000/svg">
<path d="M72.5 -3.16908e-06C62.9792 -3.58524e-06 53.5516 1.88819 44.7555 5.55679C35.9593 9.22538 27.967 14.6025 21.2348 21.3812C14.5025 28.1599 9.16221 36.2073 5.51874 45.0641C1.87528 53.9209 3.60997e-06 63.4135 3.19093e-06 73C2.77189e-06 82.5865 1.87528 92.0791 5.51874 100.936C9.1622 109.793 14.5025 117.84 21.2348 124.619C27.967 131.397 35.9594 136.775 44.7555 140.443C53.5516 144.112 62.9792 146 72.5 146L72.5 73L72.5 -3.16908e-06Z" fill="#FC6A65"/>
</svg>
